<svg xmlns="http://www.w3.org/2000/svg" viewBox="0 0 640 480" width="640" height="480">
  <defs>
    <linearGradient id="sky3" x1="0" y1="0" x2="0" y2="1">
      <stop offset="0" stop-color="#BFD9E8"/>
      <stop offset="1" stop-color="#E9EEE3"/>
    </linearGradient>
  </defs>
  <rect width="640" height="480" fill="url(#sky3)"/>
  <rect x="0" y="345.59999999999997" width="640" height="134.40000000000003" fill="#A9B79C"/>
  <rect x="0" y="341.59999999999997" width="640" height="6" fill="#8A9A7D"/>
  <rect x="140.8" y="60" width="358.40000000000003" height="285.59999999999997" fill="#E7E2D8"/>
  <polygon points="120.80000000000001,60 320,-15 519.2,60" fill="#3E3E3E"/>
  <rect x="116.80000000000001" y="56" width="406.40000000000003" height="10" fill="#3E3E3E"/>
  <rect x="154.8" y="90" width="32" height="40" rx="2" fill="#FFFFFF" stroke="#20303A" stroke-width="2"/><line x1="170.8" y1="90" x2="170.8" y2="130" stroke="#20303A" stroke-width="1.5"/><line x1="154.8" y1="110" x2="186.8" y2="110" stroke="#20303A" stroke-width="1.5"/>
  <rect x="254.2666666666667" y="90" width="32" height="40" rx="2" fill="#FFFFFF" stroke="#20303A" stroke-width="2"/><line x1="270.2666666666667" y1="90" x2="270.2666666666667" y2="130" stroke="#20303A" stroke-width="1.5"/><line x1="254.2666666666667" y1="110" x2="286.2666666666667" y2="110" stroke="#20303A" stroke-width="1.5"/>
  <rect x="353.73333333333335" y="90" width="32" height="40" rx="2" fill="#FFFFFF" stroke="#20303A" stroke-width="2"/><line x1="369.73333333333335" y1="90" x2="369.73333333333335" y2="130" stroke="#20303A" stroke-width="1.5"/><line x1="353.73333333333335" y1="110" x2="385.73333333333335" y2="110" stroke="#20303A" stroke-width="1.5"/>
  <rect x="453.20000000000005" y="90" width="32" height="40" rx="2" fill="#FFFFFF" stroke="#20303A" stroke-width="2"/><line x1="469.20000000000005" y1="90" x2="469.20000000000005" y2="130" stroke="#20303A" stroke-width="1.5"/><line x1="453.20000000000005" y1="110" x2="485.20000000000005" y2="110" stroke="#20303A" stroke-width="1.5"/>
  <rect x="154.8" y="160" width="32" height="40" rx="2" fill="#FFFFFF" stroke="#20303A" stroke-width="2"/><line x1="170.8" y1="160" x2="170.8" y2="200" stroke="#20303A" stroke-width="1.5"/><line x1="154.8" y1="180" x2="186.8" y2="180" stroke="#20303A" stroke-width="1.5"/>
  <rect x="254.2666666666667" y="160" width="32" height="40" rx="2" fill="#FFFFFF" stroke="#20303A" stroke-width="2"/><line x1="270.2666666666667" y1="160" x2="270.2666666666667" y2="200" stroke="#20303A" stroke-width="1.5"/><line x1="254.2666666666667" y1="180" x2="286.2666666666667" y2="180" stroke="#20303A" stroke-width="1.5"/>
  <rect x="296" y="255.59999999999997" width="48" height="90" rx="2" fill="#8C1C1C" stroke="#20303A" stroke-width="2"/>
  <circle cx="336" cy="300.59999999999997" r="2.5" fill="#F2E9DC"/>
  <rect x="280" y="343.59999999999997" width="80" height="8" fill="#C9C2B4"/>
  <text x="16" y="466" font-family="monospace" font-size="13" fill="#3B4A3B" opacity="0.55">COLONIAL — REF 04</text>
</svg>